<?xml version="1.0" standalone="no"?>
<!DOCTYPE svg PUBLIC "-//W3C//DTD SVG 20010904//EN"
 "http://www.w3.org/TR/2001/REC-SVG-20010904/DTD/svg10.dtd">
<svg version="1.0" xmlns="http://www.w3.org/2000/svg"
 width="528.000000pt" height="648.000000pt" viewBox="0 0 528.000000 648.000000"
 preserveAspectRatio="xMidYMid meet">
<metadata>
Created by potrace 1.16, written by Peter Selinger 2001-2019
</metadata>
<g transform="translate(0.000000,648.000000) scale(0.100000,-0.100000)"
fill="#000000" stroke="none">
<path d="M2455 6474 c-551 -55 -986 -216 -1382 -513 -477 -357 -807 -830 -968
-1392 -151 -524 -132 -1127 51 -1614 42 -114 44 -142 16 -240 -55 -187 -15
-360 169 -736 95 -194 164 -313 290 -499 149 -220 255 -347 463 -556 248 -249
442 -402 623 -493 57 -28 66 -30 112 -21 28 5 62 17 76 26 24 15 26 14 142
-69 231 -165 479 -316 570 -346 41 -13 42 -13 157 47 104 54 306 184 501 323
l70 49 40 -20 c95 -48 186 -14 408 153 164 124 231 181 376 322 290 282 549
638 769 1055 78 148 125 262 158 386 34 127 39 326 11 444 l-17 76 49 149 c96
287 134 523 134 835 0 365 -60 673 -198 1012 -189 462 -551 902 -971 1180
-338 224 -688 359 -1080 418 -133 20 -469 34 -569 24z m-866 -398 c-2 -2 -42
-27 -88 -55 -368 -227 -665 -559 -804 -901 -55 -135 -53 -141 13 -40 62 94
149 204 156 197 2 -2 -12 -48 -32 -103 -117 -327 -201 -735 -229 -1113 l-7
-94 -61 -88 -60 -88 -38 77 c-22 45 -55 94 -80 117 -23 22 -39 33 -36 25 3 -8
17 -43 31 -76 26 -63 56 -185 56 -230 0 -14 -21 -68 -47 -122 -25 -53 -65
-148 -88 -211 l-43 -114 -11 53 c-90 421 -70 892 56 1275 204 624 609 1113
1188 1434 91 50 144 75 124 57z m2111 -1731 c14 -7 34 -23 45 -35 40 -44 112
-89 178 -110 37 -12 67 -26 67 -32 0 -20 -23 -89 -29 -86 -3 2 -36 18 -72 36
-37 19 -85 36 -108 39 -40 6 -44 9 -76 73 -19 37 -45 81 -59 97 -14 17 -26 34
-26 37 0 8 48 -3 80 -19z m-1741 -790 c55 -26 185 -114 179 -121 -10 -9 -155
-34 -201 -34 -39 0 -64 7 -102 29 -50 29 -148 121 -130 121 6 1 33 7 60 15 77
21 133 18 194 -10z m1566 10 c33 -9 62 -18 65 -21 8 -9 -79 -83 -135 -115 -37
-22 -63 -29 -102 -29 -46 0 -191 25 -200 34 -7 7 95 77 162 111 76 40 118 44
210 20z m1393 -1415 c1 -36 -5 -81 -12 -100 -11 -33 -112 -205 -205 -350 -38
-60 -41 -62 -35 -30 18 100 77 253 124 322 33 49 60 105 82 173 36 112 45 109
46 -15z m-1038 -325 c-70 -123 -274 -341 -433 -462 -69 -53 -66 -48 51 99 46
56 99 123 118 148 37 47 286 281 292 275 2 -2 -10 -29 -28 -60z"/>
</g>
</svg>
